<svg height="606" width="720" xmlns="http://www.w3.org/2000/svg">
<rect height="606" fill="#555" width="720"></rect>
<text fill="#7f7" font-family="Courier New" font-size="12" xml:space="preserve">
<tspan x="10" y="26">10 megabytes installed</tspan>
<tspan x="10" y="42"></tspan>
<tspan x="10" y="58">node_modules</tspan>
<tspan x="10" y="74">├── UNMET PEER DEPENDENCY chai@^3.4.0</tspan>
<tspan x="10" y="90">├─┬ jsx-chai@4.0.0 </tspan>
<tspan x="10" y="106">│ ├── collapse-white-space@1.0.2 </tspan>
<tspan x="10" y="122">│ ├── UNMET PEER DEPENDENCY react@^0.14.8 || ^15.0.1</tspan>
<tspan x="10" y="138">│ ├─┬ react-addons-test-utils@15.5.1 </tspan>
<tspan x="10" y="154">│ │ ├─┬ fbjs@0.8.12 </tspan>
<tspan x="10" y="170">│ │ │ ├── core-js@1.2.7 </tspan>
<tspan x="10" y="186">│ │ │ ├─┬ isomorphic-fetch@2.2.1 </tspan>
<tspan x="10" y="202">│ │ │ │ ├─┬ node-fetch@1.6.3 </tspan>
<tspan x="10" y="218">│ │ │ │ │ ├─┬ encoding@0.1.12 </tspan>
<tspan x="10" y="234">│ │ │ │ │ │ └── iconv-lite@0.4.16 </tspan>
<tspan x="10" y="250">│ │ │ │ │ └── is-stream@1.1.0 </tspan>
<tspan x="10" y="266">│ │ │ │ └── whatwg-fetch@2.0.3 </tspan>
<tspan x="10" y="282">│ │ │ ├─┬ loose-envify@1.3.1 </tspan>
<tspan x="10" y="298">│ │ │ │ └── js-tokens@3.0.1 </tspan>
<tspan x="10" y="314">│ │ │ ├─┬ promise@7.1.1 </tspan>
<tspan x="10" y="330">│ │ │ │ └── asap@2.0.5 </tspan>
<tspan x="10" y="346">│ │ │ ├── setimmediate@1.0.5 </tspan>
<tspan x="10" y="362">│ │ │ └── ua-parser-js@0.7.12 </tspan>
<tspan x="10" y="378">│ │ └── object-assign@4.1.1 </tspan>
<tspan x="10" y="394">│ ├── UNMET PEER DEPENDENCY react-dom@^15.4.2</tspan>
<tspan x="10" y="410">│ └─┬ react-element-to-jsx-string@2.6.1 </tspan>
<tspan x="10" y="426">│   ├─┬ is-plain-object@2.0.1 </tspan>
<tspan x="10" y="442">│   │ └── isobject@1.0.2 </tspan>
<tspan x="10" y="458">│   ├── lodash@3.10.1 </tspan>
<tspan x="10" y="474">│   ├── UNMET PEER DEPENDENCY react-dom@^15.4.2</tspan>
<tspan x="10" y="490">│   ├─┬ sortobject@1.1.1 </tspan>
<tspan x="10" y="506">│   │ └── editions@1.3.3 </tspan>
<tspan x="10" y="522">│   ├─┬ stringify-object@2.4.0 </tspan>
<tspan x="10" y="538">│   │ ├── is-plain-obj@1.1.0 </tspan>
<tspan x="10" y="554">│   │ └── is-regexp@1.0.0 </tspan>
<tspan x="10" y="570">│   └── traverse@0.6.6 </tspan>
<tspan x="10" y="586">└── UNMET PEER DEPENDENCY react@^0.14.0 || ^15.0.0-0</tspan>
</text>
</svg>
